HIERARCHY
ROOT Hips
{
  OFFSET 49.1428 53.3259 2.49718
  CHANNELS 6 Xposition Yposition Zposition Zrotation Xrotation Yrotation
  JOINT spine
  {
    OFFSET 0 7.80059 0.448573
    CHANNELS 3 Zrotation Xrotation Yrotation
    JOINT spine1
    {
      OFFSET 0 10.1364 0
      CHANNELS 3 Zrotation Xrotation Yrotation
      JOINT spine2
      {
        OFFSET 0 9.71251 0
        CHANNELS 3 Zrotation Xrotation Yrotation
        JOINT Neck
        {
          OFFSET 0 24.9361 1.18887
          CHANNELS 3 Zrotation Xrotation Yrotation
          JOINT Head
          {
            OFFSET 0 7.53384 0
            CHANNELS 3 Zrotation Xrotation Yrotation
            End Site
            {
              OFFSET 0 18.2361 -6.01402
            }
          }
        }
        JOINT RightShoulder
        {
          OFFSET -4.08965 10.4888 -0.569457
          CHANNELS 3 Zrotation Xrotation Yrotation
          JOINT RightArm
          {
            OFFSET 0 13.757 0
            CHANNELS 3 Zrotation Xrotation Yrotation
            JOINT RightArmRoll
            {
              OFFSET 0 6.94478 0
              CHANNELS 3 Zrotation Xrotation Yrotation
              JOINT RightForeArm
              {
                OFFSET 0 20.2277 0
                CHANNELS 3 Zrotation Xrotation Yrotation
                JOINT RightForeArmRoll
                {
                  OFFSET 0 7.79312 0
                  CHANNELS 3 Zrotation Xrotation Yrotation
                  JOINT RightHand
                  {
                    OFFSET 0 15.6391 0
                    CHANNELS 3 Zrotation Xrotation Yrotation
                    End Site
                    {
                      OFFSET 0 0 0
                    }
                  }
                }
              }
            }
          }
        }
        JOINT LeftShoulder
        {
          OFFSET 4.08965 10.4888 -0.569457
          CHANNELS 3 Zrotation Xrotation Yrotation
          JOINT LeftArm
          {
            OFFSET 0 13.757 0
            CHANNELS 3 Zrotation Xrotation Yrotation
            JOINT LeftArmRoll
            {
              OFFSET 0 6.94478 0
              CHANNELS 3 Zrotation Xrotation Yrotation
              JOINT LeftForeArm
              {
                OFFSET 0 20.2277 0
                CHANNELS 3 Zrotation Xrotation Yrotation
                JOINT LeftForeArmRoll
                {
                  OFFSET 0 7.79312 0
                  CHANNELS 3 Zrotation Xrotation Yrotation
                  JOINT LeftHand
                  {
                    OFFSET 0 15.6391 0
                    CHANNELS 3 Zrotation Xrotation Yrotation
                    End Site
                    {
                      OFFSET 0 0 0
                    }
                  }
                }
              }
            }
          }
        }
      }
    }
  }
  JOINT RightUpLeg
  {
    OFFSET -6.91416 -1.26788 -1.06358
    CHANNELS 3 Zrotation Xrotation Yrotation
    JOINT RightUpLegRoll
    {
      OFFSET 0 18.3378 0
      CHANNELS 3 Zrotation Xrotation Yrotation
      JOINT RightLeg
      {
        OFFSET 0 -22.7085 0
        CHANNELS 3 Zrotation Xrotation Yrotation
        JOINT RightLegRoll
        {
          OFFSET 0 22.7828 0
          CHANNELS 3 Zrotation Xrotation Yrotation
          JOINT RightFoot
          {
            OFFSET 0 18.9629 0
            CHANNELS 3 Zrotation Xrotation Yrotation
            JOINT RightToeBase
            {
              OFFSET 0 15.852 0
              CHANNELS 3 Zrotation Xrotation Yrotation
              End Site
              {
                OFFSET 0.00671906 7.67701 -0.884892
              }
            }
          }
        }
      }
    }
  }
  JOINT LeftUpLeg
  {
    OFFSET 6.91416 -1.26788 -1.06358
    CHANNELS 3 Zrotation Xrotation Yrotation
    JOINT LeftUpLegRoll
    {
      OFFSET 0 18.3379 0
      CHANNELS 3 Zrotation Xrotation Yrotation
      JOINT LeftLeg
      {
        OFFSET 0 22.7084 0
        CHANNELS 3 Zrotation Xrotation Yrotation
        JOINT LeftLegRoll
        {
          OFFSET 0 22.9934 0
          CHANNELS 3 Zrotation Xrotation Yrotation
          JOINT LeftFoot
          {
            OFFSET 0 18.7522 0
            CHANNELS 3 Zrotation Xrotation Yrotation
            JOINT LeftToeBase
            {
              OFFSET 0 15.852 0
              CHANNELS 3 Zrotation Xrotation Yrotation
              End Site
              {
                OFFSET -0.030112 7.67701 -0.884892
              }
            }
          }
        }
      }
    }
  }
}
MOTION
Frames: 5
Frame Time: 0.00208333
48.9377 52.5306 2.77343 -0.920138 -4.68666 22.811 1.00883 4.5152 -0.602138 2.11486 13.0194 -1.4306 2.14157 14.6637 -1.4716 -0.801071 -4.26507 -2.92958 -4.83654 -9.70524 -3.91884 75.1207 -4.92866 -4.04286 112.277 34.0225 -34.6175 -5.78388e-006 -2.15283e-007 -5.75857e-007 17.3474 67.4368 -14.0598 -5.71485e-006 -4.45647e-006 -2.99999 8.02897 -4.95158 0.697774 -57.056 -1.75729 0.910919 -120.546 27.1398 32.214 8.45261e-006 6.51101e-007 -3.11202e-006 -15.9513 63.6593 14.8313 1.2937e-006 -2.04787e-007 3 -8.02921 -4.95142 -0.697668 127.196 80.5086 55.2673 180 7.01518e-015 178.805 -18.3599 73.9975 20.7935 -5.28678e-008 -5.90967e-006 2.20148 -29.1203 78.9199 35.2456 8.13659 25.2341 -3.48583 166.116 86.53 4.9419 4.54188e-006 -4.6773e-006 -2.13223 149.172 -83.5903 147.789 -1.84517e-006 -2.56875e-006 -2.69887 28.6209 68.8302 -20.51 -8.13649 25.2327 3.48774 
48.9411 52.5241 2.77469 -0.877293 -4.83643 22.8348 1.00603 4.51628 -0.60353 2.10938 13.0217 -1.43233 2.13608 14.666 -1.47324 -0.724997 -4.15096 -2.93077 -4.84747 -9.67604 -3.91298 75.2234 -4.91385 -4.04219 112.151 34.125 -34.5422 -5.78388e-006 -2.15283e-007 -5.75857e-007 17.3755 67.2553 -14.0206 -5.71485e-006 -4.45647e-006 -2.99999 8.02897 -4.95158 0.697774 -57.0558 -1.74859 0.905364 -120.493 27.1794 32.2322 8.45261e-006 6.51101e-007 -3.11202e-006 -15.9874 63.5307 14.8209 1.2937e-006 -2.04787e-007 3 -8.02921 -4.95142 -0.697668 127.817 80.392 54.6557 180 7.01518e-015 178.804 -18.3637 73.9943 20.7987 -5.28678e-008 -5.90967e-006 2.20246 -29.1224 78.9187 35.245 8.13659 25.2341 -3.48583 166.889 86.3874 4.15432 4.54188e-006 -4.6773e-006 -2.13653 149.142 -83.5955 147.76 -1.84517e-006 -2.56875e-006 -2.70028 28.6525 68.823 -20.5027 -8.13649 25.2327 3.48774 
48.958 52.5204 2.77048 -0.835219 -4.98686 22.8584 1.00337 4.51783 -0.605177 2.10406 13.025 -1.43438 2.13077 14.6692 -1.4752 -0.649897 -4.0418 -2.93296 -4.85764 -9.64836 -3.90803 75.3255 -4.89898 -4.04149 112.029 34.2314 -34.4711 -5.78388e-006 -2.15283e-007 -5.75857e-007 17.4066 67.0708 -13.983 -5.71485e-006 -4.45647e-006 -2.99999 8.02897 -4.95158 0.697774 -57.0549 -1.74129 0.900622 -120.442 27.217 32.2487 8.45261e-006 6.51101e-007 -3.11202e-006 -16.0231 63.407 14.8115 1.2937e-006 -2.04787e-007 3 -8.02921 -4.95142 -0.697668 128.43 80.2747 54.0532 180 7.01518e-015 178.802 -18.3666 73.9917 20.8032 -5.28678e-008 -5.90967e-006 2.20372 -29.1261 78.9172 35.2442 8.13659 25.2341 -3.48583 167.613 86.244 3.4175 4.54188e-006 -4.6773e-006 -2.14075 149.106 -83.6022 147.725 -1.84517e-006 -2.56875e-006 -2.7016 28.6823 68.8145 -20.4939 -8.13649 25.2327 3.48774 
48.9573 52.5263 2.75432 -0.792988 -5.13744 22.8818 1.00068 4.51981 -0.607002 2.09853 13.0292 -1.4365 2.12525 14.6734 -1.47723 -0.576651 -3.93861 -2.93645 -4.86584 -9.62083 -3.90407 75.4265 -4.8841 -4.04073 111.909 34.3403 -34.4027 -5.78388e-006 -2.15283e-007 -5.75857e-007 17.4399 66.8851 -13.9471 -5.71485e-006 -4.45647e-006 -2.99999 8.02897 -4.95158 0.697774 -57.0549 -1.73448 0.896278 -120.39 27.2531 32.264 8.45261e-006 6.51101e-007 -3.11202e-006 -16.0594 63.2894 14.8042 1.2937e-006 -2.04787e-007 3 -8.02921 -4.95142 -0.697668 129.031 80.157 53.4622 180 7.01517e-015 178.801 -18.3694 73.9896 20.808 -5.28679e-008 -5.90967e-006 2.20541 -29.1313 78.915 35.2426 8.13659 25.2341 -3.48583 168.289 86.0996 2.72963 4.54188e-006 -4.6773e-006 -2.1449 149.066 -83.6105 147.686 -1.84517e-006 -2.56875e-006 -2.7028 28.7104 68.8047 -20.4836 -8.13649 25.2327 3.48774 
48.9449 52.5327 2.74236 -0.750701 -5.28809 22.9052 0.997958 4.52216 -0.608983 2.09283 13.0342 -1.4387 2.11955 14.6784 -1.47934 -0.504803 -3.84071 -2.94109 -4.87249 -9.59355 -3.90101 75.5267 -4.8692 -4.03994 111.791 34.4518 -34.3369 -5.78388e-006 -2.15283e-007 -5.75857e-007 17.4752 66.6981 -13.9126 -5.71485e-006 -4.45647e-006 -2.99999 8.02897 -4.95158 0.697774 -57.0554 -1.72813 0.892289 -120.337 27.2879 32.2783 8.45261e-006 6.51101e-007 -3.11202e-006 -16.0962 63.1773 14.7987 1.2937e-006 -2.04787e-007 3 -8.02921 -4.95142 -0.697668 129.62 80.0387 52.8828 180 7.01517e-015 178.799 -18.3719 73.988 20.8129 -5.28678e-008 -5.90967e-006 2.20744 -29.1381 78.9122 35.2405 8.13659 25.2341 -3.48583 168.92 85.9543 2.08739 4.54188e-006 -4.6773e-006 -2.14899 149.022 -83.6202 147.644 -1.84517e-006 -2.56875e-006 -2.70391 28.7371 68.7938 -20.472 -8.13649 25.2327 3.48774 
